<?xml version="1.0" encoding="utf-8"?>
<svg id="OBJECTS" viewBox="0 0 390 330" width="390px" height="330px" xmlns="http://www.w3.org/2000/svg">
  <defs>
    <style>
      .cls-1 {
        fill: #000;
        font-family: Montserrat-Bold, Montserrat;
        font-size: 47.64px;
        font-weight: 700;
      }

      .cls-2 {
        letter-spacing: .27em;
      }

      .cls-3 {
        letter-spacing: 0em;
      }

      .cls-4 {
        letter-spacing: .29em;
      }

      .cls-5 {
        letter-spacing: .3em;
      }

      .cls-6 {
        fill: #070506;
        stroke-width: 0px;
      }

      .cls-7 {
        letter-spacing: -.05em;
      }

      .cls-8 {
        letter-spacing: -.01em;
      }

      .cls-9 {
        fill: #2a2a2a;
        font-family: Montserrat-Medium, Montserrat;
        font-size: 12.56px;
        font-weight: 500;
      }
    </style>
  </defs>
  <g transform="matrix(1, 0, 0, 1, 28.065002, 21.66507)">
    <g>
      <path class="cls-6" d="M234.47,0H99.36C44.57,0,0,44.58,0,99.37s44.57,99.37,99.36,99.37c5.92,0,11.82-.53,17.59-1.56v12.87h7.09v-107.14h11.14c.06,1.74.17,3.46.32,5.17v101.97h7.09v-72.89c3.01,7.3,6.87,14.17,11.46,20.48v52.41h7.09v-43.72c3.53,3.86,7.36,7.45,11.46,10.72v33h7.09v-27.84c3.66,2.43,7.48,4.62,11.46,6.56v21.28h7.09v-18.17c11.24,4.42,23.47,6.85,36.26,6.85,54.79,0,99.37-44.58,99.37-99.37S289.27,0,234.47,0ZM198.21,184.23c-1.19-.51-2.38-1.05-3.54-1.61-1.2-.57-2.38-1.18-3.54-1.8-4-2.14-7.83-4.56-11.46-7.25-2.46-1.82-4.82-3.76-7.09-5.81-4.19-3.79-8.02-7.97-11.46-12.46-2.6-3.4-4.97-6.99-7.09-10.74-6.23-11.06-10.25-23.52-11.46-36.78-.15-1.61-.25-3.23-.31-4.86-.04-1.18-.07-2.36-.07-3.54h0c0-1.03.02-2.06.06-3.08,0-.15.01-.31.02-.46,1.87-49.25,42.51-88.74,92.21-88.74s92.28,41.4,92.28,92.28-41.4,92.28-92.28,92.28c-12.87,0-25.12-2.65-36.26-7.43ZM116.59,102.92c-1.64,8-8.74,14.04-17.23,14.04-9.7,0-17.59-7.89-17.59-17.59s7.89-17.59,17.59-17.59c4.52,0,27.62,1.39,36.98,1.97-.63,3.95-1.02,7.98-1.16,12.08h-35.27v7.09h16.68ZM116.95,151.43c-5.65,1.91-11.56,2.88-17.59,2.88-30.28,0-54.92-24.65-54.92-54.94s24.64-54.94,54.92-54.94h52.36c-2.46,3.7-4.69,7.57-6.65,11.6h-45.71c-23.9,0-43.34,19.44-43.34,43.34s19.44,43.34,43.34,43.34c6.1,0,12.09-1.28,17.59-3.73v12.45ZM116.95,131.06c-5.35,2.99-11.39,4.57-17.59,4.57-19.99,0-36.25-16.26-36.25-36.25s16.26-36.25,36.25-36.25h42.59c-1.73,4.4-3.15,8.95-4.25,13.62-8.74-.54-33.41-2.04-38.35-2.04-13.61,0-24.67,11.07-24.67,24.67s11.07,24.67,24.67,24.67c6.88,0,13.11-2.83,17.59-7.39v14.4ZM156.9,37.35h-57.54c-34.19,0-62.01,27.82-62.01,62.02s27.82,62.02,62.01,62.02c6,0,11.9-.86,17.59-2.54v12.02c-5.73,1.4-11.64,2.11-17.59,2.11-40.59,0-73.6-33.02-73.6-73.61S58.77,25.77,99.36,25.77h68.43c-3.93,3.56-7.57,7.44-10.89,11.58ZM99.36,191.66c-50.88,0-92.27-41.4-92.27-92.29S48.48,7.09,99.36,7.09h98.27c-7.52,3.02-14.59,6.93-21.08,11.6h-77.19c-44.49,0-80.69,36.2-80.69,80.69s36.2,80.69,80.69,80.69c5.94,0,11.83-.65,17.59-1.93v11.85c-5.75,1.11-11.66,1.68-17.59,1.68Z"/>
      <path class="cls-6" d="M234.47,18.68c-43.31,0-78.74,34.3-80.6,77.15-.05,1.18-.09,2.36-.09,3.54h0c0,1.19.04,2.37.09,3.54.04.87.1,1.74.17,2.6.74,9.72,3.2,18.96,7.09,27.43,3.02,6.56,6.88,12.66,11.46,18.13,2.2,2.63,4.57,5.12,7.09,7.45,3.54,3.28,7.38,6.24,11.46,8.85,1.16.74,2.34,1.46,3.54,2.14,1.16.66,2.34,1.3,3.54,1.9,10.91,5.51,23.22,8.64,36.26,8.64,44.5,0,80.7-36.2,80.7-80.69s-36.2-80.7-80.7-80.7ZM234.47,172.98c-13.18,0-25.55-3.5-36.26-9.59-1.2-.68-2.38-1.4-3.54-2.15-1.2-.78-2.39-1.58-3.54-2.43-4.17-3.05-8.02-6.53-11.46-10.37-2.6-2.9-4.97-6.02-7.09-9.3-6.4-9.92-10.47-21.46-11.46-33.86-.06-.79-.13-1.57-.17-2.36-.06-1.17-.09-2.36-.09-3.54h0c0-1.03.04-2.06.08-3.08,0-.15,0-.31.01-.46,1.86-38.95,34.12-70.06,73.52-70.06s73.61,33.02,73.61,73.61-33.02,73.61-73.61,73.61Z"/>
      <path class="cls-6" d="M234.47,37.35c-33.01,0-60.07,25.92-61.91,58.48-.07,1.17-.11,2.35-.11,3.54h0c0,1.19.04,2.37.11,3.54,0,.09.02.18.02.27.55,9.05,3.05,17.58,7.09,25.17,3.02,5.69,6.9,10.85,11.46,15.31,1.14,1.12,2.32,2.19,3.54,3.22,1.15.96,2.33,1.88,3.54,2.75,10.21,7.38,22.73,11.75,36.26,11.75,34.2,0,62.02-27.82,62.02-62.02s-27.82-62.02-62.02-62.02ZM234.47,154.31c-13.89,0-26.58-5.19-36.26-13.72-1.23-1.09-2.41-2.22-3.54-3.41-1.25-1.31-2.43-2.68-3.54-4.11-6.57-8.43-10.73-18.81-11.46-30.11,0-.01,0-.02,0-.03-.08-1.17-.13-2.35-.13-3.54h0c0-1.03.03-2.06.09-3.08,0-.16.03-.31.04-.46,1.83-28.64,25.71-51.39,54.81-51.39s54.94,24.64,54.94,54.93-24.64,54.93-54.94,54.93Z"/>
      <path class="cls-6" d="M234.47,56.03c-22.71,0-41.38,17.56-43.19,39.8-.1,1.17-.16,2.35-.16,3.54h0c0,1.19.06,2.37.16,3.54.39,4.8,1.56,9.37,3.39,13.6.99,2.3,2.18,4.49,3.54,6.56,7.75,11.81,21.11,19.64,36.26,19.64,23.9,0,43.35-19.45,43.35-43.35s-19.45-43.35-43.35-43.35ZM234.47,135.64c-19.99,0-36.26-16.27-36.26-36.26s16.27-36.26,36.26-36.26,36.26,16.27,36.26,36.26-16.27,36.26-36.26,36.26Z"/>
      <path class="cls-6" d="M234.47,74.7c-13.6,0-24.67,11.07-24.67,24.67s11.07,24.67,24.67,24.67,24.67-11.07,24.67-24.67-11.07-24.67-24.67-24.67ZM234.47,116.96c-9.7,0-17.59-7.89-17.59-17.59s7.89-17.59,17.59-17.59,17.59,7.89,17.59,17.59-7.89,17.59-17.59,17.59Z"/>
    </g>
    <g>
      <text class="cls-9" transform="translate(67.34 283.53)" style="white-space: pre;"><tspan class="cls-2" x="0" y="0">T</tspan><tspan class="cls-4" x="10.7" y="0">A</tspan><tspan class="cls-5" x="23.54" y="0">GLINE GOES HERE</tspan></text>
      <text class="cls-1" transform="translate(36.53 264.3) rotate(.42)" style="white-space: pre;"><tspan class="cls-8" x="0" y="0">C</tspan><tspan class="cls-3" x="34.2" y="0">OM</tspan><tspan class="cls-7" x="119.9" y="0">P</tspan><tspan x="152.63" y="0">ANY</tspan></text>
    </g>
  </g>
</svg>